<svg width="30" height="30" viewBox="0 0 30 30" fill="none" xmlns="http://www.w3.org/2000/svg">
<path d="M14.625 0V9.01875C14.625 10.1006 15.4337 10.9896 16.4677 11.0905L16.6641 11.1L25.5 11.1V24.975C25.5 26.438 24.391 27.6365 22.9842 27.7424L22.7812 27.75H6.46875C5.03548 27.75 3.86124 26.618 3.75746 25.1821L3.75 24.975L3.75 2.775C3.75 1.31207 4.85908 0.113546 6.26585 0.00761151L6.46875 0L14.625 0ZM17.3438 0.060162C17.7817 0.154817 18.1921 0.358924 18.5365 0.656362L18.7031 0.812784L24.7037 6.9375C25.0252 7.2656 25.2578 7.6674 25.3858 8.10399L25.441 8.325L17.3438 8.325V0.060162Z" fill="white" fill-opacity="0.4"/>
</svg>
